<svg id="Capa_1" enable-background="new 0 0 512.039 512.039" height="512" viewBox="0 0 512.039 512.039" width="512" xmlns="http://www.w3.org/2000/svg"><path d="m455.014 163.071c-12.092 12.092-29.487 17.606-46.457 14.212l-73.822-73.822c-3.394-16.97 2.121-34.365 14.212-46.457 33.305-33.305 81.883-44.972 126.643-29.91 2.121.847 4.029 1.908 5.727 3.606 1.697 1.697 2.759 3.606 3.606 5.727 15.063 44.762 3.396 93.339-29.909 126.644z" fill="#54e360"/><path d="m408.557 177.284-36.911-36.911 109.672-109.672c1.697 1.697 2.759 3.606 3.606 5.727 15.062 44.761 3.395 93.339-29.91 126.643-12.092 12.092-29.487 17.606-46.457 14.213z" fill="#00cc71"/><path d="m481.318 242.833-21.213-21.213c-8.69-8.69-18.707-15.723-29.738-20.892l-39.94 120.919 18.468 18.468c16.272 16.272 25.605 38.801 25.605 61.817 0 6.115 3.715 11.579 9.26 13.859 5.604 2.331 12.057 1.036 16.345-3.252l21.213-21.213c40.935-40.935 40.935-107.558 0-148.493z" fill="#00cc71"/><path d="m290.399 51.914-21.213-21.213c-40.935-40.935-107.558-40.935-148.492 0l-21.213 21.213c-4.288 4.288-5.583 10.741-3.252 16.345 2.278 5.54 7.735 9.26 13.859 9.26 23.016 0 45.544 9.333 61.817 25.605l18.468 18.468 120.919-39.94c-5.169-11.031-12.202-21.047-20.893-29.738z" fill="#54e360"/><path d="m114.196 188.038h-39.174c-41.349 0-75.002 33.653-75.002 75.002 0 4.143 1.678 7.893 4.392 10.607s6.463 4.392 10.607 4.392h80.855z" fill="#54e360"/><path d="m321.02 437.036-.01-33.777-89.99 16.987v76.794c0 3.977 1.585 7.8 4.392 10.607 2.817 2.817 6.629 4.392 10.607 4.392 41.338-.011 74.991-33.664 75.001-75.003z" fill="#00cc71"/><path d="m173.303 418.902-120.28 60.032c-5.516 2.97-12.516 1.91-17.183-2.757s-5.727-11.667-2.757-17.183l60.032-120.28z" fill="#54e360"/><path d="m133.21 378.809 40.093 40.093-120.28 60.032c-5.516 2.97-12.516 1.91-17.183-2.757z" fill="#00cc71"/><path d="m317.855 75.61c-58.332-10.25-125.511 10.72-175.948 61.157l7.955 50.381 55.685 13.258 53.247 10.821 24.447-36.026 43.915-44.105z" fill="#596c76"/><path d="m436.41 194.165-55.487-9.301-44.105 43.915-33.963 18.089 8.758 59.605 16.573 58.999 47.067 4.64c50.436-50.437 71.406-117.616 61.157-175.947z" fill="#465a61"/><path d="m311.613 306.473-59.604-8.759-18.09 33.964-36.183 21.859 1.569 77.734c58.331 10.249 125.511-10.721 175.948-61.158z" fill="#596c76"/><path d="m205.547 200.407-63.64-63.64c-50.437 50.437-71.407 117.617-61.158 175.948l77.735 1.569 21.858-36.183 55.177-39.302z" fill="#697c86"/><path d="m436.346 194.042-99.49 34.579-47.942-5.516-5.516-47.942 34.579-99.49c29.487 5.303 56.85 18.243 78.488 39.881s34.578 49.001 39.881 78.488z" fill="#697c86"/><path d="m199.183 431.205c-29.487-5.303-56.851-18.242-78.489-39.88s-34.576-49.002-39.88-78.489l99.489-34.578 47.942 5.516 5.516 47.942z" fill="#596c76"/><path d="m233.761 331.717-34.578 99.489c-29.487-5.303-56.851-18.242-78.489-39.88l107.551-107.551z" fill="#465a61"/><path d="m336.856 228.621-47.942-5.516 107.551-107.551c21.638 21.638 34.578 49.001 39.881 78.488z" fill="#596c76"/><path d="m311.613 306.473c-1.696 1.696-3.606 2.757-5.727 3.606l-63.64 21.213c-2.97.849-5.728 1.062-8.486.425-2.333-.637-5.091-2.121-7.001-4.031l-42.426-42.426c-1.91-1.91-3.394-4.668-4.031-7.001-.637-2.758-.425-5.516.425-8.486l21.213-63.64c.849-2.121 1.91-4.031 3.606-5.727 1.697-1.697 3.607-2.758 5.728-3.607l63.64-21.213c2.969-.848 5.727-1.06 8.484-.423 2.334.636 5.091 2.121 7.001 4.031l42.426 42.426c1.91 1.91 3.395 4.666 4.031 7.001.637 2.758.425 5.516-.423 8.484l-21.213 63.64c-.85 2.121-1.91 4.03-3.607 5.728z" fill="#465a61"/><path d="m315.22 300.745c-.849 2.121-1.91 4.031-3.607 5.728-1.696 1.696-3.606 2.757-5.727 3.606l-63.64 21.213c-2.97.849-5.728 1.062-8.486.425-2.333-.637-5.091-2.121-7.001-4.031l-21.213-21.213 106.066-106.066 21.213 21.213c1.91 1.91 3.395 4.666 4.031 7.001.637 2.758.425 5.516-.423 8.484z" fill="#3b4a51"/></svg>